- 
http://www.Speed.Cd      fast  and The Hottest Private Tracker on the net

   signup is open now

Please Seed back to make the speed Faster!!!

------------------nfo--------------------------
-








































          
          
              
              
                    
                    
                    
                    

Puncture.2011.BRRip.XviD.AC3-SiC

Poster:
[img]http://shayr.gs/CJKIL9.jpg[/img]

IMDB Link: 
http://www.imdb.com/title/tt1582248/

Description:
A David and Goliath law drama about a drug-addicted lawyer who takes on a health supply corporation while battling his own personal demons. 

General
Complete name                    : Puncture.2011.BRRip.XviD.AC3-SiC.avi
Format                           : AVI
Format/Info                      : Audio Video Interleave
File size                        : 1.37 GiB
Duration                         : 1h 39mn
Overall bit rate                 : 1 967 Kbps

Video
ID                               : 0
Format                           : MPEG-4 Visual
Format profile                   : Advanced Simple@L5
Format settings, BVOP            : Yes
Format settings, QPel            : No
Format settings, GMC             : No warppoints
Format settings, Matrix          : Default (MPEG)
Muxing mode                      : Packed bitstream
Codec ID                         : XVID
Codec ID/Hint                    : XviD
Duration                         : 1h 39mn
Bit rate                         : 1 575 Kbps
Width                            : 720 pixels
Height                           : 304 pixels
Display aspect ratio             : 2.35:1
Frame rate                       : 23.976 fps
Color space                      : YUV
Chroma subsampling               : 4:2:0
Bit depth                        : 8 bits
Scan type                        : Progressive
Bits/(Pixel*Frame)               : 0.300
Stream size                      : 1.10 GiB (80%)
Writing library                  : XviD 64

Audio
ID                               : 1
Format                           : AC-3
Format/Info                      : Audio Coding 3
Mode extension                   : CM (complete main)
Codec ID                         : 2000
Duration                         : 1h 39mn
Bit rate mode                    : Constant
Bit rate                         : 384 Kbps
Channel(s)                       : 6 channels
Channel positions                : Front: L C R, Side: L R, LFE
Sampling rate                    : 48.0 KHz
Bit depth                        : 16 bits
Stream size                      : 274 MiB (20%)
Alignment                        : Aligned on interleaves
Interleave, duration             : 64 ms (1.53 video frames)
Interleave, preload duration     : 192 ms
Title                            : Puncture.2011.720p.BluRay.X264-AMIABLE - [2] English


Screenshots:
[IMG]http://shayr.gs/O0I20Q.png[/IMG]
[IMG]http://shayr.gs/LSFCIF.png[/IMG]
[IMG]http://shayr.gs/NTR432.png[/IMG]
[IMG]http://shayr.gs/9XVTJL.png[/IMG]
[IMG]http://shayr.gs/L0FGCZ.png[/IMG]

Note: did my thing

Source:  720p AMIABLE

Enjoy!

Respects to CM8, Rx, THC, ELEKTRI4KA, PA, YeFsTe, Box, MrRep and everyone in the struggle...